<mxfile host="app.diagrams.net" modified="2023-11-24T18:09:59.035Z" agent="Mozilla/5.0 (Windows NT 10.0; Win64; x64) AppleWebKit/537.36 (KHTML, like Gecko) Chrome/119.0.0.0 Safari/537.36" etag="EZ0qJUWN7dCguWtJG1GB" version="22.1.3" type="device">
  <diagram name="Страница — 1" id="EkZwhuHCwvy8cagycZYr">
    <mxGraphModel dx="2022" dy="652" grid="1" gridSize="10" guides="1" tooltips="1" connect="1" arrows="1" fold="1" page="1" pageScale="1" pageWidth="827" pageHeight="1169" math="0" shadow="0">
      <root>
        <mxCell id="0" />
        <mxCell id="1" parent="0" />
        <mxCell id="_ufunk4fh_MDQpFK85gs-4" value="" style="edgeStyle=orthogonalEdgeStyle;rounded=0;orthogonalLoop=1;jettySize=auto;html=1;" edge="1" parent="1" source="_ufunk4fh_MDQpFK85gs-2" target="_ufunk4fh_MDQpFK85gs-3">
          <mxGeometry relative="1" as="geometry" />
        </mxCell>
        <mxCell id="_ufunk4fh_MDQpFK85gs-2" value="start" style="ellipse;whiteSpace=wrap;html=1;aspect=fixed;" vertex="1" parent="1">
          <mxGeometry x="374" width="80" height="80" as="geometry" />
        </mxCell>
        <mxCell id="_ufunk4fh_MDQpFK85gs-6" value="" style="edgeStyle=orthogonalEdgeStyle;rounded=0;orthogonalLoop=1;jettySize=auto;html=1;" edge="1" parent="1" source="_ufunk4fh_MDQpFK85gs-3" target="_ufunk4fh_MDQpFK85gs-5">
          <mxGeometry relative="1" as="geometry" />
        </mxCell>
        <mxCell id="_ufunk4fh_MDQpFK85gs-3" value="numberOfString" style="shape=parallelogram;perimeter=parallelogramPerimeter;whiteSpace=wrap;html=1;fixedSize=1;" vertex="1" parent="1">
          <mxGeometry x="354" y="220" width="120" height="60" as="geometry" />
        </mxCell>
        <mxCell id="_ufunk4fh_MDQpFK85gs-13" value="" style="edgeStyle=orthogonalEdgeStyle;rounded=0;orthogonalLoop=1;jettySize=auto;html=1;" edge="1" parent="1" source="_ufunk4fh_MDQpFK85gs-5" target="_ufunk4fh_MDQpFK85gs-12">
          <mxGeometry relative="1" as="geometry" />
        </mxCell>
        <mxCell id="_ufunk4fh_MDQpFK85gs-14" value="NO" style="edgeLabel;html=1;align=center;verticalAlign=middle;resizable=0;points=[];" vertex="1" connectable="0" parent="_ufunk4fh_MDQpFK85gs-13">
          <mxGeometry x="-0.2" y="-2" relative="1" as="geometry">
            <mxPoint as="offset" />
          </mxGeometry>
        </mxCell>
        <mxCell id="_ufunk4fh_MDQpFK85gs-5" value="numberOfString &amp;lt; 1&lt;br&gt;numberOfDtring &amp;gt; 5" style="rhombus;whiteSpace=wrap;html=1;" vertex="1" parent="1">
          <mxGeometry x="337" y="320" width="154" height="80" as="geometry" />
        </mxCell>
        <mxCell id="_ufunk4fh_MDQpFK85gs-8" value="" style="edgeStyle=orthogonalEdgeStyle;rounded=0;orthogonalLoop=1;jettySize=auto;html=1;" edge="1" parent="1" source="_ufunk4fh_MDQpFK85gs-7" target="_ufunk4fh_MDQpFK85gs-5">
          <mxGeometry relative="1" as="geometry" />
        </mxCell>
        <mxCell id="_ufunk4fh_MDQpFK85gs-11" value="YES" style="edgeLabel;html=1;align=center;verticalAlign=middle;resizable=0;points=[];" vertex="1" connectable="0" parent="_ufunk4fh_MDQpFK85gs-8">
          <mxGeometry x="0.0575" y="3" relative="1" as="geometry">
            <mxPoint as="offset" />
          </mxGeometry>
        </mxCell>
        <mxCell id="_ufunk4fh_MDQpFK85gs-10" value="" style="edgeStyle=orthogonalEdgeStyle;rounded=0;orthogonalLoop=1;jettySize=auto;html=1;" edge="1" parent="1" source="_ufunk4fh_MDQpFK85gs-7">
          <mxGeometry relative="1" as="geometry">
            <mxPoint x="90" y="360" as="targetPoint" />
          </mxGeometry>
        </mxCell>
        <mxCell id="_ufunk4fh_MDQpFK85gs-7" value="Не корректный ввод" style="shape=document;whiteSpace=wrap;html=1;boundedLbl=1;" vertex="1" parent="1">
          <mxGeometry x="130" y="325" width="120" height="70" as="geometry" />
        </mxCell>
        <mxCell id="_ufunk4fh_MDQpFK85gs-9" value="end" style="ellipse;whiteSpace=wrap;html=1;" vertex="1" parent="1">
          <mxGeometry x="10" y="320" width="80" height="80" as="geometry" />
        </mxCell>
        <mxCell id="_ufunk4fh_MDQpFK85gs-16" value="" style="edgeStyle=orthogonalEdgeStyle;rounded=0;orthogonalLoop=1;jettySize=auto;html=1;" edge="1" parent="1" source="_ufunk4fh_MDQpFK85gs-12" target="_ufunk4fh_MDQpFK85gs-15">
          <mxGeometry relative="1" as="geometry" />
        </mxCell>
        <mxCell id="_ufunk4fh_MDQpFK85gs-12" value="firstArray[numberOfString]" style="whiteSpace=wrap;html=1;" vertex="1" parent="1">
          <mxGeometry x="580" y="330" width="156" height="60" as="geometry" />
        </mxCell>
        <mxCell id="_ufunk4fh_MDQpFK85gs-19" value="" style="edgeStyle=orthogonalEdgeStyle;rounded=0;orthogonalLoop=1;jettySize=auto;html=1;" edge="1" parent="1" source="_ufunk4fh_MDQpFK85gs-15" target="_ufunk4fh_MDQpFK85gs-18">
          <mxGeometry relative="1" as="geometry" />
        </mxCell>
        <mxCell id="_ufunk4fh_MDQpFK85gs-24" value="" style="edgeStyle=orthogonalEdgeStyle;rounded=0;orthogonalLoop=1;jettySize=auto;html=1;" edge="1" parent="1" source="_ufunk4fh_MDQpFK85gs-15" target="_ufunk4fh_MDQpFK85gs-23">
          <mxGeometry relative="1" as="geometry" />
        </mxCell>
        <mxCell id="_ufunk4fh_MDQpFK85gs-15" value="i = 0, &lt;br&gt;i &amp;lt; firstArray.Length, &lt;br&gt;i+1" style="shape=hexagon;perimeter=hexagonPerimeter2;whiteSpace=wrap;html=1;fixedSize=1;" vertex="1" parent="1">
          <mxGeometry x="598" y="440" width="120" height="80" as="geometry" />
        </mxCell>
        <mxCell id="_ufunk4fh_MDQpFK85gs-17" value="Введите к-во строк в первом массиве от 1 до 5" style="shape=document;whiteSpace=wrap;html=1;boundedLbl=1;" vertex="1" parent="1">
          <mxGeometry x="354" y="110" width="120" height="80" as="geometry" />
        </mxCell>
        <mxCell id="_ufunk4fh_MDQpFK85gs-21" value="" style="edgeStyle=orthogonalEdgeStyle;rounded=0;orthogonalLoop=1;jettySize=auto;html=1;" edge="1" parent="1" source="_ufunk4fh_MDQpFK85gs-18" target="_ufunk4fh_MDQpFK85gs-20">
          <mxGeometry relative="1" as="geometry" />
        </mxCell>
        <mxCell id="_ufunk4fh_MDQpFK85gs-18" value="Ведите символы (i+1) строки" style="shape=document;whiteSpace=wrap;html=1;boundedLbl=1;" vertex="1" parent="1">
          <mxGeometry x="600" y="560" width="116" height="60" as="geometry" />
        </mxCell>
        <mxCell id="_ufunk4fh_MDQpFK85gs-22" style="edgeStyle=orthogonalEdgeStyle;rounded=0;orthogonalLoop=1;jettySize=auto;html=1;entryX=1;entryY=0.5;entryDx=0;entryDy=0;" edge="1" parent="1" source="_ufunk4fh_MDQpFK85gs-20" target="_ufunk4fh_MDQpFK85gs-15">
          <mxGeometry relative="1" as="geometry">
            <Array as="points">
              <mxPoint x="780" y="690" />
              <mxPoint x="780" y="480" />
            </Array>
          </mxGeometry>
        </mxCell>
        <mxCell id="_ufunk4fh_MDQpFK85gs-20" value="firstArray[i]" style="shape=parallelogram;perimeter=parallelogramPerimeter;whiteSpace=wrap;html=1;fixedSize=1;" vertex="1" parent="1">
          <mxGeometry x="598" y="660" width="120" height="60" as="geometry" />
        </mxCell>
        <mxCell id="_ufunk4fh_MDQpFK85gs-26" value="" style="edgeStyle=orthogonalEdgeStyle;rounded=0;orthogonalLoop=1;jettySize=auto;html=1;" edge="1" parent="1" source="_ufunk4fh_MDQpFK85gs-23" target="_ufunk4fh_MDQpFK85gs-25">
          <mxGeometry relative="1" as="geometry" />
        </mxCell>
        <mxCell id="_ufunk4fh_MDQpFK85gs-23" value="numberOfString2 = 0" style="rounded=0;whiteSpace=wrap;html=1;" vertex="1" parent="1">
          <mxGeometry x="170" y="450" width="120" height="60" as="geometry" />
        </mxCell>
        <mxCell id="_ufunk4fh_MDQpFK85gs-28" value="" style="edgeStyle=orthogonalEdgeStyle;rounded=0;orthogonalLoop=1;jettySize=auto;html=1;" edge="1" parent="1" source="_ufunk4fh_MDQpFK85gs-25" target="_ufunk4fh_MDQpFK85gs-27">
          <mxGeometry relative="1" as="geometry" />
        </mxCell>
        <mxCell id="_ufunk4fh_MDQpFK85gs-40" style="edgeStyle=orthogonalEdgeStyle;rounded=0;orthogonalLoop=1;jettySize=auto;html=1;entryX=0;entryY=0.75;entryDx=0;entryDy=0;" edge="1" parent="1" source="_ufunk4fh_MDQpFK85gs-25" target="_ufunk4fh_MDQpFK85gs-39">
          <mxGeometry relative="1" as="geometry">
            <Array as="points">
              <mxPoint x="40" y="583" />
              <mxPoint x="40" y="915" />
            </Array>
          </mxGeometry>
        </mxCell>
        <mxCell id="_ufunk4fh_MDQpFK85gs-25" value="i = 0, i &amp;lt; firstArray.Length,&lt;br&gt;i + 1" style="shape=hexagon;perimeter=hexagonPerimeter2;whiteSpace=wrap;html=1;fixedSize=1;" vertex="1" parent="1">
          <mxGeometry x="170" y="545" width="120" height="75" as="geometry" />
        </mxCell>
        <mxCell id="_ufunk4fh_MDQpFK85gs-33" value="YES" style="edgeStyle=orthogonalEdgeStyle;rounded=0;orthogonalLoop=1;jettySize=auto;html=1;" edge="1" parent="1" source="_ufunk4fh_MDQpFK85gs-27" target="_ufunk4fh_MDQpFK85gs-32">
          <mxGeometry relative="1" as="geometry" />
        </mxCell>
        <mxCell id="_ufunk4fh_MDQpFK85gs-52" value="NO" style="edgeStyle=orthogonalEdgeStyle;rounded=0;orthogonalLoop=1;jettySize=auto;html=1;entryX=0;entryY=0.75;entryDx=0;entryDy=0;" edge="1" parent="1" source="_ufunk4fh_MDQpFK85gs-27" target="_ufunk4fh_MDQpFK85gs-25">
          <mxGeometry x="-0.8182" relative="1" as="geometry">
            <Array as="points">
              <mxPoint x="110" y="710" />
              <mxPoint x="110" y="599" />
            </Array>
            <mxPoint as="offset" />
          </mxGeometry>
        </mxCell>
        <mxCell id="_ufunk4fh_MDQpFK85gs-27" value="firstArray[i].Length &amp;lt;= 3" style="rhombus;whiteSpace=wrap;html=1;" vertex="1" parent="1">
          <mxGeometry x="150" y="670" width="160" height="80" as="geometry" />
        </mxCell>
        <mxCell id="_ufunk4fh_MDQpFK85gs-35" style="edgeStyle=orthogonalEdgeStyle;rounded=0;orthogonalLoop=1;jettySize=auto;html=1;entryX=1;entryY=0.5;entryDx=0;entryDy=0;" edge="1" parent="1" source="_ufunk4fh_MDQpFK85gs-32" target="_ufunk4fh_MDQpFK85gs-25">
          <mxGeometry relative="1" as="geometry">
            <Array as="points">
              <mxPoint x="434" y="583" />
            </Array>
          </mxGeometry>
        </mxCell>
        <mxCell id="_ufunk4fh_MDQpFK85gs-32" value="numberOfString2 + 1" style="whiteSpace=wrap;html=1;" vertex="1" parent="1">
          <mxGeometry x="374" y="680" width="120" height="60" as="geometry" />
        </mxCell>
        <mxCell id="_ufunk4fh_MDQpFK85gs-42" value="" style="edgeStyle=orthogonalEdgeStyle;rounded=0;orthogonalLoop=1;jettySize=auto;html=1;" edge="1" parent="1" source="_ufunk4fh_MDQpFK85gs-39" target="_ufunk4fh_MDQpFK85gs-41">
          <mxGeometry relative="1" as="geometry" />
        </mxCell>
        <mxCell id="_ufunk4fh_MDQpFK85gs-39" value="secondArray[numberOfString2]&lt;br&gt;j = 0" style="rounded=0;whiteSpace=wrap;html=1;" vertex="1" parent="1">
          <mxGeometry x="180" y="870" width="180" height="60" as="geometry" />
        </mxCell>
        <mxCell id="_ufunk4fh_MDQpFK85gs-45" value="" style="edgeStyle=orthogonalEdgeStyle;rounded=0;orthogonalLoop=1;jettySize=auto;html=1;" edge="1" parent="1" source="_ufunk4fh_MDQpFK85gs-41" target="_ufunk4fh_MDQpFK85gs-44">
          <mxGeometry relative="1" as="geometry" />
        </mxCell>
        <mxCell id="_ufunk4fh_MDQpFK85gs-55" style="edgeStyle=orthogonalEdgeStyle;rounded=0;orthogonalLoop=1;jettySize=auto;html=1;entryX=0.5;entryY=0;entryDx=0;entryDy=0;" edge="1" parent="1" source="_ufunk4fh_MDQpFK85gs-41" target="_ufunk4fh_MDQpFK85gs-54">
          <mxGeometry relative="1" as="geometry">
            <Array as="points">
              <mxPoint x="130" y="1030" />
              <mxPoint x="130" y="1270" />
              <mxPoint x="270" y="1270" />
            </Array>
          </mxGeometry>
        </mxCell>
        <mxCell id="_ufunk4fh_MDQpFK85gs-41" value="i + 0,&lt;br&gt;i &amp;lt; firstArray.Length,&lt;br&gt;i + 1" style="shape=hexagon;perimeter=hexagonPerimeter2;whiteSpace=wrap;html=1;fixedSize=1;" vertex="1" parent="1">
          <mxGeometry x="210" y="990" width="120" height="80" as="geometry" />
        </mxCell>
        <mxCell id="_ufunk4fh_MDQpFK85gs-47" value="YES" style="edgeStyle=orthogonalEdgeStyle;rounded=0;orthogonalLoop=1;jettySize=auto;html=1;" edge="1" parent="1" source="_ufunk4fh_MDQpFK85gs-44" target="_ufunk4fh_MDQpFK85gs-46">
          <mxGeometry relative="1" as="geometry" />
        </mxCell>
        <mxCell id="_ufunk4fh_MDQpFK85gs-51" value="NO" style="edgeStyle=orthogonalEdgeStyle;rounded=0;orthogonalLoop=1;jettySize=auto;html=1;exitX=0;exitY=0.5;exitDx=0;exitDy=0;entryX=0.063;entryY=0.819;entryDx=0;entryDy=0;entryPerimeter=0;" edge="1" parent="1" source="_ufunk4fh_MDQpFK85gs-44" target="_ufunk4fh_MDQpFK85gs-41">
          <mxGeometry relative="1" as="geometry">
            <Array as="points">
              <mxPoint x="170" y="1170" />
              <mxPoint x="170" y="1056" />
              <mxPoint x="218" y="1056" />
            </Array>
          </mxGeometry>
        </mxCell>
        <mxCell id="_ufunk4fh_MDQpFK85gs-44" value="firstArray[i].Length &amp;lt;= 3" style="rhombus;whiteSpace=wrap;html=1;" vertex="1" parent="1">
          <mxGeometry x="190" y="1130" width="160" height="80" as="geometry" />
        </mxCell>
        <mxCell id="_ufunk4fh_MDQpFK85gs-49" style="edgeStyle=orthogonalEdgeStyle;rounded=0;orthogonalLoop=1;jettySize=auto;html=1;entryX=1;entryY=0.5;entryDx=0;entryDy=0;" edge="1" parent="1" source="_ufunk4fh_MDQpFK85gs-46" target="_ufunk4fh_MDQpFK85gs-41">
          <mxGeometry relative="1" as="geometry">
            <Array as="points">
              <mxPoint x="650" y="1170" />
              <mxPoint x="650" y="1030" />
            </Array>
          </mxGeometry>
        </mxCell>
        <mxCell id="_ufunk4fh_MDQpFK85gs-46" value="secondArray[j] = firstArray[i]&lt;br&gt;j + 1" style="rounded=0;whiteSpace=wrap;html=1;" vertex="1" parent="1">
          <mxGeometry x="430" y="1140" width="180" height="60" as="geometry" />
        </mxCell>
        <mxCell id="_ufunk4fh_MDQpFK85gs-57" value="YES" style="edgeStyle=orthogonalEdgeStyle;rounded=0;orthogonalLoop=1;jettySize=auto;html=1;" edge="1" parent="1" source="_ufunk4fh_MDQpFK85gs-54" target="_ufunk4fh_MDQpFK85gs-56">
          <mxGeometry relative="1" as="geometry" />
        </mxCell>
        <mxCell id="_ufunk4fh_MDQpFK85gs-61" value="NO" style="edgeStyle=orthogonalEdgeStyle;rounded=0;orthogonalLoop=1;jettySize=auto;html=1;" edge="1" parent="1" source="_ufunk4fh_MDQpFK85gs-54" target="_ufunk4fh_MDQpFK85gs-60">
          <mxGeometry relative="1" as="geometry" />
        </mxCell>
        <mxCell id="_ufunk4fh_MDQpFK85gs-54" value="numberOfString2 = 0" style="rhombus;whiteSpace=wrap;html=1;" vertex="1" parent="1">
          <mxGeometry x="195" y="1300" width="150" height="80" as="geometry" />
        </mxCell>
        <mxCell id="_ufunk4fh_MDQpFK85gs-59" value="" style="edgeStyle=orthogonalEdgeStyle;rounded=0;orthogonalLoop=1;jettySize=auto;html=1;" edge="1" parent="1" source="_ufunk4fh_MDQpFK85gs-56" target="_ufunk4fh_MDQpFK85gs-58">
          <mxGeometry relative="1" as="geometry" />
        </mxCell>
        <mxCell id="_ufunk4fh_MDQpFK85gs-56" value="Первый массив: firstArray,&lt;br&gt;Массив из строк первого массива, длинна которых меньше или ровна трём символам: []" style="shape=document;whiteSpace=wrap;html=1;boundedLbl=1;" vertex="1" parent="1">
          <mxGeometry x="-170" y="1290" width="270" height="100" as="geometry" />
        </mxCell>
        <mxCell id="_ufunk4fh_MDQpFK85gs-58" value="end" style="ellipse;whiteSpace=wrap;html=1;" vertex="1" parent="1">
          <mxGeometry x="-75" y="1450" width="80" height="80" as="geometry" />
        </mxCell>
        <mxCell id="_ufunk4fh_MDQpFK85gs-63" value="" style="edgeStyle=orthogonalEdgeStyle;rounded=0;orthogonalLoop=1;jettySize=auto;html=1;" edge="1" parent="1" source="_ufunk4fh_MDQpFK85gs-60" target="_ufunk4fh_MDQpFK85gs-62">
          <mxGeometry relative="1" as="geometry" />
        </mxCell>
        <mxCell id="_ufunk4fh_MDQpFK85gs-60" value="Первый массив:firstArray,&#xa;Массив из строк первого массива, длинна которых меньше или ровна трём символам:secondArray" style="shape=document;whiteSpace=wrap;html=1;boundedLbl=1;" vertex="1" parent="1">
          <mxGeometry x="400" y="1287.5" width="250" height="105" as="geometry" />
        </mxCell>
        <mxCell id="_ufunk4fh_MDQpFK85gs-62" value="end" style="ellipse;whiteSpace=wrap;html=1;" vertex="1" parent="1">
          <mxGeometry x="485" y="1460" width="80" height="80" as="geometry" />
        </mxCell>
      </root>
    </mxGraphModel>
  </diagram>
</mxfile>
